<svg width="275" height="48" viewBox="0 0 275 48" fill="none" xmlns="http://www.w3.org/2000/svg">
<g clip-path="url(#clip0_8287_103940)">
<path fill-rule="evenodd" clip-rule="evenodd" d="M2.90797 31.6569V24.2328H7.39172C8.5111 24.2328 9.77235 24.2329 10.6127 24.9329C11.5933 25.6329 12.153 26.8941 12.153 28.015C12.153 29.136 11.7336 30.1166 10.8933 30.8166C10.053 31.5166 8.79172 31.6569 7.67078 31.6569H2.90797ZM2.90797 22.4119V15.8282H7.39172C8.37234 15.8282 9.2111 15.8282 10.053 16.2491C11.0336 16.8088 11.5933 17.7894 11.5933 18.9103C11.5933 19.891 11.0336 21.0104 10.332 21.5716C9.35141 22.4119 7.95141 22.4119 6.69016 22.4119H2.90797ZM7.8111 33.6182C9.63203 33.6182 11.1723 33.4779 12.5739 32.3569C13.9739 31.2375 14.5352 29.836 14.5352 28.1554C14.5352 25.6329 12.8545 23.6716 10.4723 23.1119C12.5739 22.5522 13.9739 20.8716 13.9739 18.77C13.9739 17.0894 13.1336 15.6878 11.8739 14.8475C10.4723 14.0072 9.35141 13.8669 7.8111 13.8669H0.527344V33.6182H7.8111Z" fill="#100E0D"/>
<path fill-rule="evenodd" clip-rule="evenodd" d="M19.1577 26.1937C19.1577 24.9325 19.298 23.5325 19.8577 22.5519C20.5577 21.2906 21.8189 20.4503 23.2205 20.4503C24.4802 20.4503 25.7414 21.1503 26.4414 22.1309C27.1414 23.3922 27.2817 24.7922 27.2817 26.1937C27.2817 27.4534 27.1414 28.7147 26.5817 29.9759C25.8817 31.2372 24.7608 32.0775 23.2205 32.0775C21.8189 32.0775 20.5577 31.3759 19.998 30.2566C19.298 28.9953 19.1577 27.4534 19.1577 26.1937ZM16.6367 26.1937C16.6367 29.9759 18.598 33.8984 22.9398 33.8984C27.422 33.8984 29.8027 30.2566 29.8027 26.1937C29.8027 22.4116 27.7027 18.6294 23.3608 18.6294C19.0173 18.6294 16.6367 22.1309 16.6367 26.1937Z" fill="#100E0D"/>
<path fill-rule="evenodd" clip-rule="evenodd" d="M34.4248 26.1937C34.4248 24.9325 34.5652 23.5325 35.1248 22.5519C35.6845 21.2906 37.0861 20.4503 38.4861 20.4503C39.7473 20.4503 40.8683 21.1503 41.5683 22.1309C42.4086 23.3922 42.5489 24.7922 42.5489 26.1937C42.5489 27.4534 42.4086 28.7147 41.8489 29.9759C41.1474 31.2372 39.8877 32.0775 38.4861 32.0775C37.0861 32.0775 35.8248 31.3759 35.2652 30.2566C34.5652 28.9953 34.4248 27.4534 34.4248 26.1937ZM31.9023 26.1937C31.9023 29.9759 33.8636 33.8984 38.207 33.8984C42.6892 33.8984 44.9311 30.2566 44.9311 26.1937C44.9311 22.4116 42.8295 18.6294 38.6264 18.6294C34.2845 18.6294 31.9023 22.1309 31.9023 26.1937Z" fill="#100E0D"/>
<path fill-rule="evenodd" clip-rule="evenodd" d="M57.1173 20.3103L49.1336 31.7972H57.1173V33.6182H46.332V31.7972L54.177 20.7313H47.032V19.0491H57.1173V20.3103Z" fill="#100E0D"/>
<path d="M69.8672 40.0605H71.6881V9.66273H69.8672V40.0605Z" fill="#100E0D"/>
<path fill-rule="evenodd" clip-rule="evenodd" d="M93.5411 25.9135H87.517L90.4589 16.5282L93.5411 25.9135ZM91.9992 13.8669H89.338L82.8945 33.6182H84.9961L86.817 27.8747H94.1008L96.062 33.6182H98.4427L91.9992 13.8669Z" fill="#100E0D"/>
<path fill-rule="evenodd" clip-rule="evenodd" d="M115.112 24.7922C115.112 22.5519 116.793 20.31 119.314 20.31C121.836 20.31 123.377 22.4116 123.236 24.7922H115.112ZM123.377 29.2759C122.677 30.9566 121.275 32.0775 119.454 32.0775C117.914 32.0775 116.232 31.0969 115.532 29.6953C114.972 28.7147 114.972 27.5937 114.972 26.4744H125.617C125.757 22.4116 123.798 18.6294 119.314 18.6294C114.972 18.6294 112.59 22.2713 112.59 26.3341C112.59 30.3953 114.832 33.8984 119.174 33.8984C121.975 33.8984 124.498 32.2178 125.478 29.555L123.377 29.2759Z" fill="#100E0D"/>
<path fill-rule="evenodd" clip-rule="evenodd" d="M130.941 21.4313H131.082C131.782 19.891 133.603 18.6297 135.564 18.6297C137.385 18.6297 138.786 19.3297 139.767 20.8716C140.467 22.1313 140.327 24.0925 140.327 25.4941V33.6182H138.085V24.5135C138.085 23.6716 138.225 22.691 137.806 21.8522C137.245 21.0104 136.264 20.591 135.283 20.591C134.024 20.591 133.043 21.1507 132.201 21.991C131.361 23.1119 131.082 24.5135 131.082 25.9135V33.6182H128.84V19.0491H130.941V21.4313Z" fill="#100E0D"/>
<path fill-rule="evenodd" clip-rule="evenodd" d="M265.136 21.4313C265.836 19.891 267.657 18.6297 269.619 18.6297C271.44 18.6297 272.84 19.3297 273.822 20.8716C274.522 22.1313 274.522 24.0925 274.522 25.4941V33.6182H272.28V24.5135C272.28 23.6716 272.28 22.691 271.86 21.8522C271.299 21.0104 270.319 20.591 269.338 20.591C268.217 20.591 267.098 21.1507 266.398 21.991C265.417 23.1119 265.136 24.5135 265.136 25.9135V33.6182H262.895V19.0491H265.136V21.4313Z" fill="#100E0D"/>
<path d="M153.211 40.0605H155.032V9.66273H153.211V40.0605Z" fill="#100E0D"/>
<path fill-rule="evenodd" clip-rule="evenodd" d="M180.386 33.6182V24.0925H171.281V33.6182H169.039V13.8669H171.281V22.2716H180.386V13.8669H182.766V33.6182H180.386Z" fill="#100E0D"/>
<path fill-rule="evenodd" clip-rule="evenodd" d="M195.798 27.1744C195.798 29.6953 193.977 32.0775 191.316 32.0775C189.493 32.0775 188.093 31.3759 188.093 29.555C188.093 26.6147 191.316 26.1937 193.977 26.1937H195.798V27.1744ZM193.977 24.5131C192.156 24.5131 190.055 24.6519 188.513 25.3534C186.973 26.0534 185.852 27.7341 185.852 29.4147C185.852 32.3566 188.093 33.8984 190.895 33.8984C193.135 33.8984 194.817 32.9178 195.798 30.8163L196.077 33.6178H198.319C198.038 32.6372 197.9 31.5163 197.9 30.5356V24.7922C197.9 23.2519 197.9 21.2906 196.779 20.0294C195.658 18.7697 193.977 18.6294 192.435 18.6294C189.774 18.6294 186.693 19.61 186.272 22.6906L188.234 22.9712C188.653 21.01 190.474 20.4503 192.156 20.4503C194.677 20.4503 195.798 21.2906 195.798 23.9519V24.5131H193.977Z" fill="#100E0D"/>
<path fill-rule="evenodd" clip-rule="evenodd" d="M203.922 19.0491V21.5716C204.622 20.0297 206.304 18.6297 208.265 18.6297C210.365 18.6297 212.046 20.17 212.327 21.8522C213.167 20.0297 214.848 18.6297 217.089 18.6297C218.63 18.6297 220.031 19.47 220.731 20.7313C221.431 21.991 221.431 23.5328 221.431 24.9329V33.6182H219.191V24.9329C219.191 23.9522 219.191 22.8313 218.77 21.991C218.351 21.0103 217.37 20.4507 216.389 20.4507C215.268 20.4507 214.148 21.1507 213.588 22.1313C212.748 23.2522 212.748 24.3732 212.748 25.7732V33.6182H210.506V24.3732C210.506 23.5328 210.506 22.5522 210.085 21.8522C209.525 21.0104 208.544 20.4507 207.564 20.4507C206.583 20.4507 205.603 21.1507 204.903 21.8522C204.203 22.8313 204.062 24.0925 204.062 25.2135V33.6182H201.82V19.0491H203.922Z" fill="#100E0D"/>
<path fill-rule="evenodd" clip-rule="evenodd" d="M225.496 19.0487H227.738V33.6162H225.496V19.0487ZM225.355 13.8665H227.876V16.3874H225.355V13.8665Z" fill="#100E0D"/>
<path d="M232.359 33.6182H234.461V13.8669H232.359V33.6182Z" fill="#100E0D"/>
<path d="M100.684 33.6182H102.785V13.8669H100.684V33.6182Z" fill="#100E0D"/>
<path d="M107.406 33.6182H109.508V13.8669H107.406V33.6182Z" fill="#100E0D"/>
<path fill-rule="evenodd" clip-rule="evenodd" d="M245.805 33.6178L243.705 33.8984C240.482 33.8984 239.501 31.9372 239.501 29.1356V20.7309H236.98V18.91H239.501V15.2681L241.743 15.1278V18.91H244.964V20.7309H241.743V29.4147C241.743 31.0969 242.303 32.0775 244.124 32.0775L245.805 31.9372V33.6178Z" fill="#100E0D"/>
<path fill-rule="evenodd" clip-rule="evenodd" d="M249.448 26.1937C249.448 24.9325 249.587 23.5325 250.148 22.5519C250.708 21.2906 251.969 20.4503 253.369 20.4503C254.771 20.4503 255.892 21.1503 256.592 22.1309C257.432 23.3922 257.572 24.7922 257.572 26.1937C257.572 27.4534 257.432 28.7147 256.872 29.9759C256.171 31.2372 254.911 32.0775 253.369 32.0775C252.11 32.0775 250.848 31.3759 250.289 30.2566C249.587 28.9953 249.448 27.4534 249.448 26.1937ZM246.926 26.1937C246.926 29.9759 248.887 33.8984 253.229 33.8984C257.713 33.8984 259.953 30.2566 259.953 26.1937C259.953 22.4116 257.853 18.6294 253.65 18.6294C249.168 18.6294 246.926 22.1309 246.926 26.1937Z" fill="#100E0D"/>
</g>
<defs>
<clipPath id="clip0_8287_103940">
<rect width="274.5" height="48" fill="white"/>
</clipPath>
</defs>
</svg>
