<svg width="180" height="48" viewBox="0 0 180 48" fill="none" xmlns="http://www.w3.org/2000/svg">
<g id="Logo">
<path id="Vector" d="M167.678 23.668C168.827 23.4068 170.027 23.4868 171.13 23.8983C172.233 24.3098 173.19 25.0344 173.881 25.9819L163.145 28.3934C163.516 26.1368 165.249 24.2134 167.678 23.668ZM173.941 32.5421C173.092 33.7624 171.81 34.6193 170.352 34.9411C167.907 35.4909 165.467 34.4844 164.124 32.5896L174.892 30.17L176.645 29.776L180 29.0229C179.98 28.3073 179.886 27.5956 179.72 26.8989C178.355 21.1446 172.456 17.5573 166.544 18.8853C160.632 20.2142 156.945 25.9559 158.311 31.7093C159.675 37.4636 165.574 41.0517 171.486 39.7238C174.97 38.9402 177.68 36.6254 179.04 33.6785L173.941 32.5421ZM148.6 39.4327V24.1775H145.284V18.9802H148.6V11.8263H154.23V18.9802H158.46V24.1775H154.23V39.4327H148.6ZM137.843 39.4327H143.281V18.9802H137.843V39.4327ZM137.136 11.8048C137.136 9.91183 138.64 8.49161 140.585 8.49161C142.53 8.49161 143.989 9.91183 143.989 11.8048C143.989 13.6988 142.53 15.1611 140.585 15.1611C138.64 15.1611 137.136 13.6988 137.136 11.8048ZM135.951 19.0375C133.17 19.1808 131.531 19.6044 129.864 20.8043V18.9802H124.429V39.4327H129.863V29.4035C129.863 26.2479 130.638 24.4524 135.951 24.276V19.0375ZM105.65 29.528C105.786 32.5126 108.402 35.0154 111.604 35.0154C114.852 35.0154 117.513 32.3809 117.513 29.2647C117.513 26.1914 114.852 23.5579 111.604 23.5579C108.403 23.5579 105.786 26.1037 105.65 29.0453V29.528ZM100.348 39.4327V9.22142L105.786 8V20.5025C107.466 19.1683 109.456 18.6086 111.622 18.6086C117.812 18.6086 122.763 23.3421 122.763 29.2808C122.763 35.1757 117.812 39.9951 111.622 39.9951C109.456 39.9951 107.466 39.4363 105.786 38.1021V39.4336L100.348 39.4327ZM88.7738 39.4327V24.0728H85.458V18.9802H88.7738V11.821L94.4044 10.5557V18.9802H98.6337V24.0728H94.4044V39.4327H88.7738ZM78.8093 39.4327V28.5053C78.8093 24.5465 76.6424 23.6859 74.4754 23.6859C72.3094 23.6859 70.1433 24.5035 70.1433 28.4194V39.4327H64.7057V18.9802H70.1433V20.5016C71.3364 19.6411 72.7954 18.6077 75.6703 18.6077C80.2675 18.6077 84.247 21.2332 84.247 27.6448V39.4327H78.8093ZM50.9348 23.668C53.3642 23.1218 55.7881 24.1113 57.1372 25.9819L46.4026 28.3934C46.7723 26.1368 48.5064 24.2134 50.9348 23.668ZM57.1976 32.5421C56.3486 33.7624 55.0667 34.6193 53.6086 34.9411C52.4526 35.204 51.244 35.1209 50.1355 34.7024C49.027 34.2839 48.0682 33.5487 47.3801 32.5896L58.149 30.17L59.9029 29.776L63.2566 29.0229C63.2363 28.3073 63.1426 27.5956 62.977 26.8989C61.6117 21.1446 55.7124 17.5573 49.8004 18.8853C43.8884 20.2142 40.202 25.9559 41.5673 31.7093C42.9326 37.4636 48.831 41.0517 54.7439 39.7238C58.2274 38.9402 60.9372 36.6254 62.2962 33.6785L57.1976 32.5421ZM28.7577 39.4327L20.3127 18.9802H26.2373L31.5875 32.851L36.9809 18.9802H42.9055L34.4614 39.4327H28.7577ZM9.65111 23.6626C10.7997 23.4013 12.0003 23.4814 13.1033 23.8928C14.2064 24.3043 15.1631 25.0289 15.8544 25.9765L5.11884 28.3889C5.48856 26.1323 7.22266 24.2089 9.65111 23.6626ZM15.9139 32.5367C15.065 33.7574 13.7831 34.6146 12.3248 34.9366C9.88106 35.4855 7.44089 34.4799 6.09635 32.5851L16.8652 30.1655L18.6192 29.7715L21.9728 29.0175C21.9524 28.3022 21.8587 27.5909 21.6933 26.8944C20.328 21.1401 14.4296 17.552 8.51669 18.8799C2.60472 20.2088 -1.07989 25.9515 0.283574 31.7057C1.64885 37.46 7.5482 41.0473 13.4602 39.7193C16.9437 38.9366 19.6535 36.621 21.0134 33.6749L15.9139 32.5367Z" fill="#F05537"/>
</g>
</svg>
