<svg width="77" height="48" viewBox="0 0 77 48" fill="none" xmlns="http://www.w3.org/2000/svg">
<g id="Logo">
<g id="Toyota logo">
<path id="path5483" d="M1.84909 42.8431H0V41.6846H5.05263V42.8431H3.20354V47.3688H1.85371V42.8431H1.84909Z" fill="#010101"/>
<path id="path5487" d="M26.4819 42.8431H24.6328V41.6846H29.6854V42.8431H27.8364V47.3688H26.4865V42.8431H26.4819Z" fill="#010101"/>
<path id="path5499" d="M8.84149 46.9039C9.92107 46.9039 10.6249 46.0364 10.6249 44.8425C10.6249 43.6485 9.92107 42.7811 8.84149 42.7811C7.76191 42.7811 7.05804 43.6485 7.05804 44.8425C7.05804 46.0364 7.76191 46.9039 8.84149 46.9039ZM8.84149 41.6846C10.6677 41.6846 11.9994 42.9175 11.9994 44.8425C11.9994 46.7674 10.6677 48.0004 8.84149 48.0004C7.01524 48.0004 5.68359 46.7674 5.68359 44.8425C5.68359 42.9175 7.01524 41.6846 8.84149 41.6846Z" fill="#010101"/>
<path id="path5503" d="M21.1585 46.9039C22.1301 46.9039 22.7636 46.0364 22.7636 44.8425C22.7636 43.6485 22.1301 42.7811 21.1585 42.7811C20.1869 42.7811 19.5534 43.6485 19.5534 44.8425C19.5534 46.0364 20.1869 46.9039 21.1585 46.9039ZM21.1585 41.6846C22.8021 41.6846 24.0006 42.9175 24.0006 44.8425C24.0006 46.7674 22.8021 48.0004 21.1585 48.0004C19.5149 48.0004 18.3164 46.7674 18.3164 44.8425C18.3164 42.9175 19.5149 41.6846 21.1585 41.6846Z" fill="#010101"/>
<path id="path5507" d="M18.3111 41.6893H16.8098L15.1438 44.0628L13.4778 41.6893H12L14.5084 45.2401V47.3688H15.7603V45.2684L18.3158 41.6846L18.3111 41.6893Z" fill="#010101"/>
<path id="path5511" d="M33.7116 45.1583L32.8438 42.8488L31.9343 45.1583H33.7116ZM33.6884 41.6846L35.9994 47.3688H34.5887L34.1339 46.2093H31.5259L31.0618 47.3688H29.6836L31.976 41.6846H33.693H33.6884Z" fill="#010101"/>
<path id="path5515" d="M53.963 48.0004C52.0572 48.0004 51.1562 46.8644 51.1562 45.4256V41.6846H52.4629V45.1025C52.4629 45.9961 52.812 46.8139 53.963 46.8139C55.114 46.8139 55.5338 45.9961 55.5338 45.1025V41.6846H56.8405V45.4256C56.8405 46.8644 55.864 48.0004 53.963 48.0004Z" fill="#010101"/>
<path id="path5519" d="M40.6076 42.8431H38.5273V41.6846H44.2116V42.8431H42.1313V47.3688H40.6128V42.8431H40.6076Z" fill="#010101"/>
<path id="path5523" d="M73.8962 46.9039C74.9758 46.9039 75.6796 46.0364 75.6796 44.8425C75.6796 43.6485 74.9758 42.7811 73.8962 42.7811C72.8166 42.7811 72.1127 43.6485 72.1127 44.8425C72.1127 46.0364 72.8166 46.9039 73.8962 46.9039ZM73.8962 41.6846C75.7224 41.6846 77.0541 42.9175 77.0541 44.8425C77.0541 46.7674 75.7224 48.0004 73.8962 48.0004C72.0699 48.0004 70.7383 46.7674 70.7383 44.8425C70.7383 42.9175 72.0699 41.6846 73.8962 41.6846Z" fill="#010101"/>
<path id="path5527" d="M64.4219 41.6846H65.7379V43.9045H68.79V41.6846H70.1061V47.3688H68.79V45.064H65.7379V47.3688H64.4219V41.6846Z" fill="#010101"/>
<path id="path5531" d="M45.0437 43.5238C45.0437 42.2733 46.2169 41.6846 47.3767 41.6846C48.4432 41.6846 49.4431 42.176 49.7853 43.3973H48.5721C48.421 43.047 48.0877 42.7502 47.3767 42.7502C46.6302 42.7502 46.2036 43.0811 46.2036 43.519C46.2036 44.5894 49.8964 43.7379 49.8964 46.0151C49.8964 47.4651 48.661 48.0004 47.4434 48.0004C45.9858 48.0004 44.986 47.2072 44.8438 45.9275H46.008C46.0969 46.2341 46.4346 46.8812 47.4434 46.8812C47.9455 46.8812 48.6921 46.7304 48.6921 46.0394C48.6921 44.8425 45.0437 45.8351 45.0437 43.5238Z" fill="#010101"/>
<path id="path5535" d="M57.6976 43.5238C57.6976 42.2733 59.0174 41.6846 60.3223 41.6846C61.5221 41.6846 62.6469 42.176 63.0319 43.3973H61.6671C61.4971 43.047 61.1222 42.7502 60.3223 42.7502C59.4824 42.7502 59.0024 43.0811 59.0024 43.519C59.0024 44.5894 63.1569 43.7379 63.1569 46.0151C63.1569 47.4651 61.7671 48.0004 60.3972 48.0004C58.7575 48.0004 57.6326 47.2072 57.4727 45.9275H58.7875C58.8875 46.2341 59.2674 46.8812 60.4022 46.8812C60.9672 46.8812 61.8071 46.7304 61.8071 46.0394C61.8071 44.8425 57.7076 45.8351 57.7076 43.5238" fill="#010101"/>
<path id="path5581" d="M59.3723 0C57.9763 0 56.8438 1.13695 56.8438 2.52412C56.8438 3.91129 57.9763 5.05263 59.3723 5.05263C60.7682 5.05263 61.8964 3.92446 61.8964 2.52412C61.8964 1.12378 60.7682 0 59.3723 0Z" fill="#0060A6"/>
<path id="path5585" d="M17.6826 25.8945C16.2854 25.8945 15.1562 27.0217 15.1562 28.4208C15.1562 29.82 16.2854 30.9472 17.6826 30.9472C19.0797 30.9472 20.2089 29.8112 20.2089 28.4208C20.2089 27.0305 19.0797 25.8945 17.6826 25.8945Z" fill="#0060A6"/>
<path id="path5589" d="M53.0636 19.5789L58.1044 9.47363H55.379L43.5781 19.5789H53.0636Z" fill="#0060A6"/>
<path id="path5593" d="M30.4868 27.9629C29.7169 27.0231 29.8414 25.6205 30.7495 24.8318L48.632 9.47363H25.199L20.2109 19.4951H24.8948L33.9996 11.6744C34.9124 10.8857 36.2862 11.0085 37.0561 11.9483C37.8168 12.8787 37.7015 14.2908 36.7887 15.07L31.0492 20.0052L22.1518 37.8947H34.5482L43.6992 19.514L33.5479 28.2368C32.6351 29.0161 31.2613 28.898 30.496 27.9629" fill="#0060A6"/>
</g>
</g>
</svg>
